<?xml version="1.0" encoding="UTF-8" standalone="no"?>
<svg width="199px" height="200px" viewBox="0 0 199 200" version="1.1" xmlns="http://www.w3.org/2000/svg" xmlns:xlink="http://www.w3.org/1999/xlink" xmlns:sketch="http://www.bohemiancoding.com/sketch/ns">
    <!-- Generator: Sketch 3.3 (11970) - http://www.bohemiancoding.com/sketch -->
    <title>Artboard 1</title>
    <desc>Created with Sketch.</desc>
    <defs></defs>
    <g id="Page-1" stroke="none" stroke-width="1" fill="none" fill-rule="evenodd" sketch:type="MSPage">
        <g id="Artboard-1" sketch:type="MSArtboardGroup">
            <g id="Group-Copy-2" sketch:type="MSLayerGroup">
                <path d="M0,0 L100,0 L100,100 L0,0 Z" id="Rectangle-1" fill="#E5A6A6" sketch:type="MSShapeGroup"></path>
                <path d="M0,0 L100,0 L100,100 L0,0 Z" id="Rectangle-1-Copy-8" fill="#BE8080" sketch:type="MSShapeGroup" transform="translate(50.000000, 50.000000) scale(-1, -1) translate(-50.000000, -50.000000) "></path>
                <path d="M99,100 L199,100 L199,200 L99,100 Z" id="Rectangle-1-Copy" fill="#E6CBCB" sketch:type="MSShapeGroup"></path>
                <path d="M99,100 L199,100 L199,200 L99,100 Z" id="Rectangle-1-Copy-10" fill="#BE8080" sketch:type="MSShapeGroup" transform="translate(149.000000, 150.000000) scale(-1, -1) translate(-149.000000, -150.000000) "></path>
                <path d="M99,0 L199,0 L199,100 L99,0 Z" id="Rectangle-1-Copy-2" fill="#E38888" sketch:type="MSShapeGroup"></path>
                <path d="M99,0 L199,0 L199,100 L99,0 Z" id="Rectangle-1-Copy-9" fill="#BE8080" sketch:type="MSShapeGroup" transform="translate(149.000000, 50.000000) scale(-1, -1) translate(-149.000000, -50.000000) "></path>
                <path d="M0,100 L100,100 L100,200 L0,100 Z" id="Rectangle-1-Copy-3" fill="#E38888" sketch:type="MSShapeGroup"></path>
                <path d="M0,100 L100,100 L100,200 L0,100 Z" id="Rectangle-1-Copy-11" fill="#BE8080" sketch:type="MSShapeGroup" transform="translate(50.000000, 150.000000) scale(-1, -1) translate(-50.000000, -150.000000) "></path>
                <path d="M0,150 L50,150 L50,200 L0,150 Z" id="Rectangle-1-Copy-4" fill="#D9B8B8" sketch:type="MSShapeGroup"></path>
                <path d="M100,150 L150,150 L150,200 L100,150 Z" id="Rectangle-1-Copy-5" fill="#F69090" sketch:type="MSShapeGroup"></path>
                <path d="M99,50 L149,50 L149,100 L99,50 Z" id="Rectangle-1-Copy-6" fill="#E7C1C1" sketch:type="MSShapeGroup"></path>
                <path d="M0,50 L50,50 L50,100 L0,50 Z" id="Rectangle-1-Copy-7" fill="#CB7979" sketch:type="MSShapeGroup"></path>
            </g>
        </g>
    </g>
</svg>