<?xml version="1.0" encoding="UTF-8" standalone="no"?>
<svg width="424px" height="229px" viewBox="0 0 424 229" version="1.1" xmlns="http://www.w3.org/2000/svg" xmlns:xlink="http://www.w3.org/1999/xlink" xmlns:sketch="http://www.bohemiancoding.com/sketch/ns">
    <!-- Generator: Sketch 3.3.2 (12043) - http://www.bohemiancoding.com/sketch -->
    <title>Artboard 1</title>
    <desc>Created with Sketch.</desc>
    <defs></defs>
    <g id="Page-1" stroke="none" stroke-width="1" fill="none" fill-rule="evenodd" sketch:type="MSPage">
        <g id="Artboard-1" sketch:type="MSArtboardGroup">
            <path d="M260.002915,176.109198 L305.55352,201.358311 L341.593908,136.33973 L260.002915,176.109198 Z" id="Rectangle-6-Copy-17" fill-opacity="0.38" fill="#417505" sketch:type="MSShapeGroup" transform="translate(300.798412, 168.849020) rotate(40.000000) translate(-300.798412, -168.849020) "></path>
            <path d="M133.565105,134.913135 L179.11571,109.664022 L215.156098,174.682603 L133.565105,134.913135 Z" id="Rectangle-6-Copy-9" fill-opacity="0.38" fill="#3B6A05" sketch:type="MSShapeGroup" transform="translate(174.360602, 142.173313) rotate(40.000000) translate(-174.360602, -142.173313) "></path>
            <path d="M187.089372,171.369464 L232.639977,146.120351 L268.680365,211.138932 L187.089372,171.369464 Z" id="Rectangle-6-Copy-10" fill-opacity="0.38" fill="#3B6A05" sketch:type="MSShapeGroup" transform="translate(227.884868, 178.629642) rotate(40.000000) translate(-227.884868, -178.629642) "></path>
            <path d="M155.927952,176.109198 L201.478557,201.358311 L237.518945,136.33973 L155.927952,176.109198 Z" id="Rectangle-6-Copy-11" fill-opacity="0.38" fill="#609820" sketch:type="MSShapeGroup" transform="translate(196.723449, 168.849020) rotate(40.000000) translate(-196.723449, -168.849020) "></path>
            <path d="M206.478648,139.652869 L252.029254,164.901982 L288.069642,99.8834008 L206.478648,139.652869 Z" id="Rectangle-6-Copy-12" fill-opacity="0.38" fill="#6CA727" sketch:type="MSShapeGroup" transform="translate(247.274145, 132.392691) rotate(40.000000) translate(-247.274145, -132.392691) "></path>
            <path d="M51.8529896,176.109198 L97.4035948,201.358311 L133.443983,136.33973 L51.8529896,176.109198 Z" id="Rectangle-6-Copy-13" fill-opacity="0.38" fill="#609820" sketch:type="MSShapeGroup" transform="translate(92.648486, 168.849020) rotate(40.000000) translate(-92.648486, -168.849020) "></path>
            <path d="M102.403686,139.652869 L147.954291,164.901982 L183.994679,99.8834008 L102.403686,139.652869 Z" id="Rectangle-6-Copy-14" fill-opacity="0.38" fill="#417505" sketch:type="MSShapeGroup" transform="translate(143.199182, 132.392691) rotate(40.000000) translate(-143.199182, -132.392691) "></path>
            <path d="M237.640068,134.913135 L283.190673,109.664022 L319.231061,174.682603 L237.640068,134.913135 Z" id="Rectangle-6-Copy-15" fill-opacity="0.38" fill="#609820" sketch:type="MSShapeGroup" transform="translate(278.435564, 142.173313) rotate(40.000000) translate(-278.435564, -142.173313) "></path>
            <path d="M83.0144089,171.369464 L128.565014,146.120351 L164.605402,211.138932 L83.0144089,171.369464 Z" id="Rectangle-6-Copy-16" fill-opacity="0.38" fill="#6CA727" sketch:type="MSShapeGroup" transform="translate(123.809905, 178.629642) rotate(40.000000) translate(-123.809905, -178.629642) "></path>
            <g id="Rectangle-1-Copy-+-Rectangle-1-Copy-8-+-Rectangle-1-Copy-+-Rectangle-1-Copy-8-Copy" sketch:type="MSLayerGroup" transform="translate(17.000000, 19.000000)" fill="#264F94">
                <g id="Rectangle-1-Copy-+-Rectangle-1-Copy-8" sketch:type="MSShapeGroup">
                    <path d="M118.246835,0 L118.246835,14.4175824 C118.246835,14.4175824 93.0500382,31.3725673 80.4516396,39.8500598 C59.8359642,53.7223969 18.6046135,81.4670711 18.6046135,81.4670711 L6.39488462e-14,79.2967033 L118.246835,0 Z" id="Rectangle-1-Copy"></path>
                </g>
                <g id="Rectangle-1-Copy-+-Rectangle-1-Copy-8-Copy" transform="translate(59.500000, 118.000000) scale(1, -1) translate(-59.500000, -118.000000) translate(0.000000, 77.000000)" sketch:type="MSShapeGroup">
                    <path d="M118.246835,0 L118.246835,14.4175824 C118.246835,14.4175824 93.0500382,31.3725673 80.4516396,39.8500598 L18.6046135,81.4670711 L0.376352808,79.8499537 L118.246835,0 Z" id="Rectangle-1-Copy"></path>
                </g>
            </g>
            <rect id="Rectangle-1-Copy-6" fill="#264F94" sketch:type="MSShapeGroup" x="215" y="38" width="11" height="119"></rect>
            <g id="Rectangle-1-Copy-+-Rectangle-1-Copy-8-+-Rectangle-1-Copy-+-Rectangle-1-Copy-8-Copy-Copy" sketch:type="MSLayerGroup" transform="translate(263.000000, 98.000000) scale(-1, 1) translate(-263.000000, -98.000000) translate(230.000000, 39.000000)" fill="#264F94">
                <g id="Rectangle-1-Copy-+-Rectangle-1-Copy-8" sketch:type="MSShapeGroup">
                    <path d="M65.5822785,0 L65.5822785,10.632967 C65.5822785,10.632967 51.6075842,23.1372684 44.6202371,29.3894191 C33.1863331,39.6202677 10.3185251,58.6069649 10.3185251,58.6069649 L4.97379915e-14,58.4813187 L65.5822785,0 Z" id="Rectangle-1-Copy"></path>
                </g>
                <g id="Rectangle-1-Copy-+-Rectangle-1-Copy-8-Copy" transform="translate(33.000000, 88.000000) scale(1, -1) translate(-33.000000, -88.000000) translate(0.000000, 58.000000)" sketch:type="MSShapeGroup">
                    <path d="M5.55712945,54.4999635 C25.5655125,36.333309 65.5822785,0 65.5822785,0 L65.5822785,10.5494505 L44.6202371,29.1585803 C33.1863331,39.3090709 10.3185251,59.610052 10.3185251,59.610052 L0.345406527,59.6720723 C0.345406527,59.6720723 3.79330141,56.1014349 5.55712945,54.4999635 Z" id="Rectangle-1-Copy"></path>
                </g>
            </g>
            <text id="{" sketch:type="MSTextLayer" font-family="Helvetica Neue" font-size="144" font-weight="normal" fill="#264F94">
                <tspan x="294" y="135">{</tspan>
            </text>
            <ellipse id="Oval-1" stroke="#264F94" stroke-width="7" sketch:type="MSShapeGroup" cx="166" cy="99" rx="41" ry="59"></ellipse>
            <text id="Party" sketch:type="MSTextLayer" transform="translate(326.500000, 194.000000) rotate(-10.000000) translate(-326.500000, -194.000000) " font-family="Brush Script Std" font-size="48" font-style="italic" font-weight="420" fill="#000000">
                <tspan x="271" y="198">Party</tspan>
            </text>
        </g>
    </g>
</svg>