<?xml version="1.0" encoding="UTF-8" standalone="no"?>
<svg width="486px" height="421px" viewBox="0 0 486 421" version="1.1" xmlns="http://www.w3.org/2000/svg" xmlns:xlink="http://www.w3.org/1999/xlink" xmlns:sketch="http://www.bohemiancoding.com/sketch/ns">
    <!-- Generator: Sketch 3.3 (11970) - http://www.bohemiancoding.com/sketch -->
    <title>logo attempt 3</title>
    <desc>Created with Sketch.</desc>
    <defs></defs>
    <g id="Page-1" stroke="none" stroke-width="1" fill="none" fill-rule="evenodd" sketch:type="MSPage">
        <g id="logo-attempt-3" sketch:type="MSArtboardGroup">
            <path d="M197,131 L223,131 L203,291 L177,291 L197,131 Z" id="Rectangle-11" fill="#6FBCDD" sketch:type="MSShapeGroup"></path>
            <path d="M244,131 L270,131 L233,311 L197,311 L244,131 Z" id="Rectangle-11-Copy" fill="#46788E" sketch:type="MSShapeGroup" transform="translate(233.500000, 221.000000) scale(-1, 1) translate(-233.500000, -221.000000) "></path>
            <g id="arrow" sketch:type="MSLayerGroup" transform="translate(86.000000, 88.000000)">
                <polygon id="Triangle-1" fill="#9A3030" sketch:type="MSShapeGroup" transform="translate(167.887373, 118.738825) rotate(118.000000) translate(-167.887373, -118.738825) " points="179.135807 -46.3783168 214.247846 283.855967 172.639867 164.349798 121.526901 280.763166 "></polygon>
                <polygon id="Triangle-1-Copy" fill="#D43232" sketch:type="MSShapeGroup" transform="translate(177.576620, 129.687839) rotate(120.000000) translate(-177.576620, -129.687839) " points="177.03932 -36.3125036 220.613921 295.688182 177.1042 191.431074 134.53932 293.497317 "></polygon>
            </g>
            <path d="M267,131 L297,131 L270,311 L234,311 L267,131 Z" id="Rectangle-11-Copy-2" fill="#555353" sketch:type="MSShapeGroup"></path>
            <path d="M306,131 L336,131 L306,324 L267,324 L306,131 Z" id="Rectangle-11-Copy-3" fill="#6FBCDD" sketch:type="MSShapeGroup" transform="translate(301.500000, 227.500000) scale(-1, 1) translate(-301.500000, -227.500000) "></path>
        </g>
    </g>
</svg>